<svg id="Ebene_1" data-name="Ebene 1" xmlns="http://www.w3.org/2000/svg" viewBox="0 0 86.75 31.19"><defs><style>.cls-1{fill:url(#Unbenannter_Verlauf_10);}.cls-2{fill:url(#Unbenannter_Verlauf_9);}.cls-3{fill:url(#Unbenannter_Verlauf_12);}.cls-4{fill:url(#Unbenannter_Verlauf_14);}.cls-5{fill:url(#Unbenannter_Verlauf_16);}.cls-6{fill:url(#Unbenannter_Verlauf_19);}</style><linearGradient id="Unbenannter_Verlauf_10" x1="7821.9" y1="3248.46" x2="7831.82" y2="3248.46" gradientTransform="translate(-7815.17 -3242.09)" gradientUnits="userSpaceOnUse"><stop offset="0" stop-color="#fc7575"/><stop offset="1" stop-color="#f88"/></linearGradient><linearGradient id="Unbenannter_Verlauf_9" x1="11405.18" y1="-2092.21" x2="11395.48" y2="-2092.21" gradientTransform="translate(-11384.08 2101.04)" gradientUnits="userSpaceOnUse"><stop offset="0" stop-color="#ffb78f"/><stop offset="1" stop-color="#fca87e"/></linearGradient><linearGradient id="Unbenannter_Verlauf_12" x1="8712.74" y1="-6859.69" x2="8722.51" y2="-6859.69" gradientTransform="translate(-8701.54 6873.49)" gradientUnits="userSpaceOnUse"><stop offset="0" stop-color="#ffc969"/><stop offset="1" stop-color="#ffd47d"/></linearGradient><linearGradient id="Unbenannter_Verlauf_14" x1="3144.82" y1="-7803.67" x2="3154.82" y2="-7803.67" gradientTransform="translate(-3138.13 7820.04)" gradientUnits="userSpaceOnUse"><stop offset="0" stop-color="#58c484"/><stop offset="1" stop-color="#68da9a"/></linearGradient><linearGradient id="Unbenannter_Verlauf_16" x1="-581.16" y1="-2299.11" x2="-571.36" y2="-2299.11" gradientTransform="translate(583.59 2313)" gradientUnits="userSpaceOnUse"><stop offset="0" stop-color="#73a8c6"/><stop offset="1" stop-color="#8dbad8"/></linearGradient><linearGradient id="Unbenannter_Verlauf_19" x1="8304.78" y1="-6901.53" x2="8314.61" y2="-6901.53" gradientTransform="translate(-8302.24 6910.26)" gradientUnits="userSpaceOnUse"><stop offset="0" stop-color="#ab8ace"/><stop offset="1" stop-color="#bf9edb"/></linearGradient></defs><path d="M30.76,18.88q-2.36-2.44-2.36-7.51t2.39-7.46a9.05,9.05,0,0,1,6.83-2.48A10.77,10.77,0,0,1,42,2.26a6.68,6.68,0,0,1,3,2.49A7.31,7.31,0,0,1,46,8.85H42.4A4.13,4.13,0,0,0,41.11,5.6a5,5,0,0,0-3.43-1.14,5.25,5.25,0,0,0-4.25,1.65,7.57,7.57,0,0,0-1.39,5v.56a7.63,7.63,0,0,0,1.38,5,5.24,5.24,0,0,0,4.26,1.64,5.2,5.2,0,0,0,3.55-1.14A4,4,0,0,0,42.54,14H46a6.63,6.63,0,0,1-2.32,5.49,9.41,9.41,0,0,1-6.1,1.87C34.62,21.31,32.34,20.5,30.76,18.88Z"/><path d="M49.5,19.44c-1.2-1.25-1.79-3.2-1.79-5.83S48.3,9,49.5,7.79a7.13,7.13,0,0,1,5.4-1.88,7.13,7.13,0,0,1,5.4,1.88C61.5,9,62.09,11,62.09,13.61s-.59,4.58-1.79,5.83-3,1.87-5.4,1.87S50.69,20.69,49.5,19.44Zm8.26-2a6,6,0,0,0,.89-3.6v-.39a5.92,5.92,0,0,0-.89-3.6A3.35,3.35,0,0,0,54.9,8.66,3.34,3.34,0,0,0,52,9.82a5.92,5.92,0,0,0-.88,3.6v.39a6,6,0,0,0,.88,3.6,3.37,3.37,0,0,0,2.87,1.16A3.37,3.37,0,0,0,57.76,17.41Z"/><path d="M64.51.73h3.28V4H64.51Zm0,5.52h3.33V21H64.51Z"/><path d="M71.15,6.25H73.9l.28,2h.19a5.7,5.7,0,0,1,2-1.7,5.88,5.88,0,0,1,2.71-.6,4.78,4.78,0,0,1,3.47,1.22A5.27,5.27,0,0,1,83.79,11V21H80.45V11.63a2.86,2.86,0,0,0-.68-2.16,2.81,2.81,0,0,0-2-.65,3.07,3.07,0,0,0-2.33,1,3.63,3.63,0,0,0-1,2.58V21H71.15Z"/><rect class="cls-1" x="6.72" y="3.21" width="10" height="6.32" rx="0.57" transform="translate(18.1 -5.35) rotate(90)"/><rect class="cls-2" x="11.1" y="5.67" width="10" height="6.32" rx="0.57" transform="translate(34.46 8.43) rotate(150)"/><rect class="cls-3" x="11.23" y="10.64" width="10" height="6.32" rx="0.57" transform="translate(23.38 33.86) rotate(-150)"/><rect class="cls-4" x="6.72" y="13.22" width="10" height="6.32" rx="0.57" transform="translate(-4.65 28.1) rotate(-90)"/><rect class="cls-5" x="2.46" y="10.74" width="10" height="6.32" rx="0.57" transform="translate(-5.95 5.59) rotate(-30)"/><rect class="cls-6" x="2.63" y="5.57" width="10" height="6.32" rx="0.57" transform="translate(9.88 20.1) rotate(-150)"/><path d="M29.37,29.34a2.86,2.86,0,0,1-.65-2.05,2.9,2.9,0,0,1,.65-2.05,3,3,0,0,1,3.57-.16,1.81,1.81,0,0,1,.62,1.48h-.75a1.26,1.26,0,0,0-.4-1,1.62,1.62,0,0,0-1.12-.35,1.74,1.74,0,0,0-1.37.49,2.39,2.39,0,0,0-.44,1.6h0a2.41,2.41,0,0,0,.43,1.61,1.76,1.76,0,0,0,1.38.5,1.71,1.71,0,0,0,1.14-.35,1.26,1.26,0,0,0,.41-1h.72a1.8,1.8,0,0,1-.62,1.48,3,3,0,0,1-3.57-.18Z"/><path d="M37,29.33a2.75,2.75,0,0,1-.69-2,2.77,2.77,0,0,1,.69-2,3.07,3.07,0,0,1,3.88,0,2.77,2.77,0,0,1,.69,2,2.77,2.77,0,0,1-.69,2,3.07,3.07,0,0,1-3.88,0Zm3.33-.43a2.15,2.15,0,0,0,.49-1.58v0a2.32,2.32,0,0,0-.49-1.6,2.18,2.18,0,0,0-2.78,0,2.32,2.32,0,0,0-.49,1.6v0a2.2,2.2,0,0,0,.48,1.58,1.89,1.89,0,0,0,1.4.5A1.85,1.85,0,0,0,40.29,28.9Z"/><path d="M44.49,24.66h.73v4.63h2.7v.64H44.49Z"/><path d="M51.2,29.33a2.75,2.75,0,0,1-.69-2,2.77,2.77,0,0,1,.69-2,3.09,3.09,0,0,1,3.89,0,2.77,2.77,0,0,1,.69,2,2.77,2.77,0,0,1-.69,2,3.09,3.09,0,0,1-3.89,0Zm3.34-.43A2.2,2.2,0,0,0,55,27.32v0a2.27,2.27,0,0,0-.49-1.6,2.17,2.17,0,0,0-2.77,0,2.22,2.22,0,0,0-.49,1.6v0a2.2,2.2,0,0,0,.48,1.58,2.2,2.2,0,0,0,2.79,0Z"/><path d="M58.73,24.66h2.75a1.68,1.68,0,0,1,1.21.4,1.48,1.48,0,0,1,.42,1.1,1.71,1.71,0,0,1-.25.93,1.47,1.47,0,0,1-.71.56l1.21,2.28h-.81L61.4,27.75H59.46v2.18h-.73Zm2.71,2.46a.91.91,0,0,0,.68-.26.94.94,0,0,0,.26-.7.84.84,0,0,0-.24-.64,1,1,0,0,0-.7-.22h-2v1.82Z"/><path d="M66.28,24.66H70v.64H67V27h2.73v.64H67v2.32h-.73Z"/><path d="M73.53,29.52A2,2,0,0,1,73,28V24.66h.73V28a1.38,1.38,0,0,0,.37,1,1.5,1.5,0,0,0,1.06.35A1.49,1.49,0,0,0,76.2,29a1.32,1.32,0,0,0,.38-1V24.66h.72V28a1.92,1.92,0,0,1-.56,1.54,2.83,2.83,0,0,1-3.21,0Z"/><path d="M80.52,24.66h.73v4.63H84v.64H80.52Z"/></svg>
