<svg width="368" height="26" fill="none" xmlns="http://www.w3.org/2000/svg"><path d="M31.21 20.31c-1.573-1.647-2.357-4.133-2.35-7.46.007-3.327.79-5.813 2.35-7.46 1.567-1.647 3.9-2.473 7-2.48a9.12 9.12 0 016 1.86 6.61 6.61 0 012.26 5.42h-2.72a4.69 4.69 0 00-1.47-3.74 6 6 0 00-4.07-1.27 6.38 6.38 0 00-5 1.79c-1.06 1.2-1.6 3.143-1.62 5.83 0 2.71.53 4.66 1.6 5.87s2.73 1.8 5 1.8a6.28 6.28 0 004.16-1.26 4.57 4.57 0 001.49-3.69h2.61A6.55 6.55 0 0144.23 21a9.3 9.3 0 01-6 1.82c-3.12-.03-5.45-.82-7.02-2.51zM52.14 20.29c-1.67-1.68-2.51-4.15-2.51-7.44s.84-5.76 2.51-7.43a9.55 9.55 0 017.07-2.51 9.63 9.63 0 017.1 2.51c1.667 1.673 2.5 4.15 2.5 7.43 0 3.28-.833 5.753-2.5 7.42a9.59 9.59 0 01-7.1 2.52c-3.05 0-5.4-.79-7.07-2.5zm12.16-1.57c1.18-1.21 1.77-3.12 1.77-5.76v-.11c0-2.67-.62-4.61-1.79-5.84a6.73 6.73 0 00-5.07-1.83 6.66 6.66 0 00-5 1.83c-1.18 1.23-1.78 3.17-1.8 5.84V13c0 2.64.59 4.55 1.77 5.76a6.779 6.779 0 005.07 1.8 6.8 6.8 0 005.05-1.84zM72.87 3.25h2.66v16.88h9.86v2.33H72.87V3.25zM90.61 20.29c-1.67-1.68-2.51-4.15-2.51-7.44s.84-5.76 2.51-7.43a9.57 9.57 0 017.07-2.51c3.06 0 5.427.837 7.1 2.51 1.673 1.673 2.507 4.15 2.5 7.43 0 3.273-.833 5.747-2.5 7.42s-4.033 2.513-7.1 2.52c-3.04 0-5.397-.833-7.07-2.5zm12.17-1.57c1.17-1.21 1.76-3.12 1.76-5.76v-.11c0-2.67-.62-4.61-1.79-5.84A7.9 7.9 0 0092.64 7c-1.18 1.23-1.77 3.17-1.79 5.84V13c0 2.64.59 4.55 1.76 5.76a8.08 8.08 0 0010.17 0v-.04zM111.34 3.25h10a6.1 6.1 0 014.42 1.48 5.26 5.26 0 011.54 4 6.111 6.111 0 01-.93 3.39 5.202 5.202 0 01-2.59 2l4.42 8.32h-3l-4.17-7.93H114v7.93h-2.66V3.25zm9.86 9a3.331 3.331 0 002.49-.93 3.413 3.413 0 00.93-2.54 3.07 3.07 0 00-.87-2.34 3.57 3.57 0 00-2.55-.83H114v6.64h7.2zM132.12 3.25h13.61v2.32h-10.95v6.11h9.94V14h-9.94v8.46h-2.66V3.25zM151.83 21c-1.333-1.207-2-3.073-2-5.6V3.25h2.66v12.26a4.867 4.867 0 001.36 3.74 5.39 5.39 0 003.85 1.27 5.51 5.51 0 003.89-1.28 4.885 4.885 0 001.37-3.73V3.25h2.66v12.12c0 2.52-.667 4.387-2 5.6a8.61 8.61 0 01-5.88 1.82 8.5 8.5 0 01-5.91-1.79zM170.56 3.25h2.66v16.88h9.86v2.33h-12.52V3.25zM189.16 20.36c-1.593-1.633-2.387-4.137-2.38-7.51.007-3.373.807-5.86 2.4-7.46a9.19 9.19 0 016.89-2.48 10.92 10.92 0 014.37.83 6.76 6.76 0 013 2.49 7.239 7.239 0 011.11 4.1h-3.67a4.132 4.132 0 00-1.3-3.25 5.07 5.07 0 00-3.46-1.14 5.33 5.33 0 00-4.29 1.65 7.572 7.572 0 00-1.39 5v.56a7.629 7.629 0 001.38 5 6.338 6.338 0 007.88.5 3.99 3.99 0 001.32-3.2h3.53a6.625 6.625 0 01-2.34 5.49 9.54 9.54 0 01-6.15 1.87c-3.01-.02-5.32-.81-6.9-2.45zM210.07 20.3c-1.68-1.66-2.52-4.143-2.52-7.45 0-3.3.84-5.79 2.52-7.45 1.68-1.66 4.06-2.49 7.14-2.49s5.47.83 7.16 2.49c1.69 1.66 2.53 4.15 2.53 7.45s-.84 5.79-2.53 7.45c-1.69 1.66-4.08 2.49-7.16 2.49s-5.46-.79-7.14-2.49zm11.64-2.2a7.118 7.118 0 001.52-4.94v-.59a7.078 7.078 0 00-1.54-4.95 6.77 6.77 0 00-8.93 0 7.079 7.079 0 00-1.54 5v.59a7.08 7.08 0 001.53 4.94 5.73 5.73 0 004.46 1.67 5.815 5.815 0 004.5-1.72zM230.65 3.25h3.59v16.1h10.19v3.11h-13.78V3.25zM247.79 3.25h3.58v16.1h10.19v3.11h-13.77V3.25zM264.92 3.25h15V6.3h-11.41v4.82h10.16v3.05h-10.16v5.23h11.56v3.06h-15.15V3.25zM285.78 20.36c-1.58-1.63-2.38-4.13-2.38-7.51s.81-5.81 2.41-7.46c1.6-1.65 3.9-2.48 6.89-2.48a10.92 10.92 0 014.37.83 6.76 6.76 0 013 2.49 7.226 7.226 0 011.1 4.1h-3.66a4.112 4.112 0 00-1.31-3.25 5 5 0 00-3.45-1.14 5.317 5.317 0 00-4.29 1.65 7.57 7.57 0 00-1.4 5v.56a7.571 7.571 0 001.39 5 6.338 6.338 0 007.88.5 3.99 3.99 0 001.32-3.2h3.52a6.63 6.63 0 01-2.33 5.49 9.54 9.54 0 01-6.15 1.87c-3.013-.013-5.317-.83-6.91-2.45zM309.72 6.33h-6.18V3.25h15.93v3.08h-6.19v16.13h-3.56V6.33zM322.74 3.25h3.56v19.21h-3.56V3.25zM329.18 3.25h3.87L337.16 15c.17.45.42 1.19.76 2.21.24.767.38 1.187.42 1.26h.14c.48-1.6.86-2.77 1.12-3.5l4.09-11.7h3.69l-7 19.21h-4.17l-7.03-19.23zM350.18 3.25h15V6.3h-11.41v4.82h10.16v3.05h-10.16v5.23h11.56v3.06h-15.15V3.25z" fill="#fff"/><path d="M15.15 11.76V3.31a.85.85 0 00-.85-.85H9.59a.85.85 0 00-.85.85v8.45c0 .47.38.85.85.85h4.71c.47 0 .85-.38.85-.85z" fill="url(#paint0_linear)"/><path d="M14.326 14.91l7.318-4.225a.85.85 0 00.311-1.161L19.6 5.445a.85.85 0 00-1.16-.311L11.12 9.359a.85.85 0 00-.31 1.16l2.354 4.08a.85.85 0 001.161.311z" fill="url(#paint1_linear)"/><path d="M11.249 15.729l7.318 4.225a.85.85 0 001.16-.311l2.356-4.08a.85.85 0 00-.311-1.16l-7.318-4.225a.85.85 0 00-1.162.31l-2.354 4.08a.85.85 0 00.31 1.16z" fill="url(#paint2_linear)"/><path d="M8.74 13.45v8.45c0 .47.38.85.85.85h4.71c.47 0 .85-.38.85-.85v-8.45a.85.85 0 00-.85-.85H9.59a.85.85 0 00-.85.85z" fill="url(#paint3_linear)"/><path d="M9.682 10.273l-7.318 4.225a.85.85 0 00-.31 1.16l2.354 4.08a.85.85 0 001.161.31l7.318-4.224a.85.85 0 00.311-1.161l-2.354-4.08a.85.85 0 00-1.162-.31z" fill="url(#paint4_linear)"/><path d="M2.53 10.58l7.318 4.225a.85.85 0 001.161-.31l2.355-4.08a.85.85 0 00-.31-1.16L5.734 5.028a.85.85 0 00-1.16.311L2.218 9.42a.85.85 0 00.311 1.16z" fill="url(#paint5_linear)"/><defs><linearGradient id="paint0_linear" x1="11.95" y1="2.46" x2="11.95" y2="12.53" gradientUnits="userSpaceOnUse"><stop stop-color="#FC7575"/><stop offset="1" stop-color="#F88"/></linearGradient><linearGradient id="paint1_linear" x1="11.99" y1="12.564" x2="20.52" y2="7.639" gradientUnits="userSpaceOnUse"><stop stop-color="#FFB78F"/><stop offset="1" stop-color="#FCA87E"/></linearGradient><linearGradient id="paint2_linear" x1="20.934" y1="17.614" x2="12.351" y2="12.659" gradientUnits="userSpaceOnUse"><stop stop-color="#FFC969"/><stop offset="1" stop-color="#FFD47D"/></linearGradient><linearGradient id="paint3_linear" x1="11.94" y1="22.78" x2="11.94" y2="12.64" gradientUnits="userSpaceOnUse"><stop stop-color="#58C484"/><stop offset="1" stop-color="#68DA9A"/></linearGradient><linearGradient id="paint4_linear" x1="3.202" y1="17.709" x2="11.811" y2="12.739" gradientUnits="userSpaceOnUse"><stop stop-color="#73A8C6"/><stop offset="1" stop-color="#8DBAD8"/></linearGradient><linearGradient id="paint5_linear" x1="12.267" y1="12.495" x2="3.633" y2="7.51" gradientUnits="userSpaceOnUse"><stop stop-color="#AB8ACE"/><stop offset="1" stop-color="#BF9EDB"/></linearGradient></defs></svg>