<svg xmlns="http://www.w3.org/2000/svg" width="28" height="24" xmlns:v="https://vecta.io/nano"><path d="M27.228.444a11.11 11.11 0 0 1-3.651 1.468C22.532.735 21.038 0 19.385 0c-3.17 0-5.742 2.713-5.742 6.059a6.34 6.34 0 0 0 .148 1.38C9.016 7.185 4.784 4.776 1.949 1.106c-.495.898-.778 1.94-.778 3.05 0 2.101 1.014 3.956 2.556 5.042-.94-.029-1.828-.305-2.604-.755v.074c0 2.937 1.98 5.387 4.61 5.941-.481.142-.99.214-1.514.214-.37 0-.731-.037-1.081-.108.731 2.406 2.851 4.159 5.366 4.205-1.965 1.626-4.444 2.594-7.134 2.594-.464 0-.922-.028-1.37-.083C2.542 22.997 5.563 24 8.806 24 19.373 24 25.15 14.769 25.15 6.762c0-.264-.004-.527-.014-.785A11.99 11.99 0 0 0 28 2.841a11.01 11.01 0 0 1-3.298.954c1.186-.749 2.097-1.936 2.526-3.351" fill="#4a4a4a" fill-rule="evenodd"/></svg>