
<svg width="28px" height="24px" viewBox="0 0 28 24" version="1.1" xmlns="http://www.w3.org/2000/svg" xmlns:xlink="http://www.w3.org/1999/xlink">
    <g id="Symbols" stroke="none" stroke-width="1" fill="none" fill-rule="evenodd">
        <g id="footer-dark" transform="translate(-1197.000000, -322.000000)" fill="#4A4A4A">
            <g id="footer">
                <g id="Social" transform="translate(1145.000000, 321.000000)">
                    <path d="M79.2277254,1.44368972 C78.1167864,2.13729134 76.8892212,2.64172888 75.5771767,2.91163372 C74.5320268,1.73512544 73.0383147,1 71.3846154,1 C68.2147759,1 65.6422716,3.71288969 65.6422716,7.05863317 C65.6422716,7.53385025 65.6916135,7.99445708 65.7902972,8.43814681 C61.0161002,8.18515908 56.7839158,5.77600846 53.9490028,2.10576399 C53.4540891,3.00390888 53.1714949,4.04584922 53.1714949,5.15545801 C53.1714949,7.25625581 54.1852455,9.11098651 55.7275519,10.1975265 C54.7870665,10.168306 53.8996609,9.89301849 53.1236483,9.44240813 L53.1236483,9.51622825 C53.1236483,12.4528852 55.1040504,14.9027907 57.7341201,15.4572106 C57.2526633,15.5994681 56.7442928,15.6709814 56.2202227,15.6709814 C55.8501589,15.6709814 55.4890663,15.6340713 55.1391878,15.563327 C55.8703442,17.9694018 57.9905482,19.7218609 60.5047393,19.7687674 C58.5392892,21.3943481 56.0609831,22.3632373 53.3703575,22.3632373 C52.9068432,22.3632373 52.4485622,22.3355548 52,22.2801897 C54.5418525,23.9965076 57.5629189,25 60.8060235,25 C71.3734013,25 77.1501348,15.7694082 77.1501348,7.76223126 C77.1501348,7.4984781 77.1456492,7.2354939 77.1359304,6.97712345 C78.2580835,6.12280927 79.2329586,5.05626222 80,3.84130595 C78.9712974,4.3226747 77.8633487,4.64871359 76.7015726,4.79481593 C77.8880197,4.04584922 78.7986009,2.8585755 79.2277254,1.44368972" id="Twitter"></path>
                </g>
            </g>
        </g>
    </g>
</svg>