<svg xmlns="http://www.w3.org/2000/svg" width="24" height="24" xmlns:v="https://vecta.io/nano"><path d="M21.147 0H2.853A2.85 2.85 0 0 0 0 2.846v18.308A2.85 2.85 0 0 0 2.853 24h18.294A2.85 2.85 0 0 0 24 21.154V2.846A2.85 2.85 0 0 0 21.147 0h0zM17.25 3.75A.75.75 0 0 1 18 3h2.25a.75.75 0 0 1 .75.75V6a.75.75 0 0 1-.75.75H18a.75.75 0 0 1-.75-.75V3.75h0zm-5.222 3.674c2.549 0 4.616 2.062 4.616 4.605a4.61 4.61 0 1 1-9.231 0 4.61 4.61 0 0 1 4.615-4.605h0zM21.75 21a.75.75 0 0 1-.75.75H3a.75.75 0 0 1-.75-.75V9.75h3c-.391.562-.523 1.612-.523 2.278 0 4.016 3.276 7.284 7.301 7.284s7.302-3.268 7.302-7.284c0-.666-.095-1.699-.579-2.278h3V21h0z" fill="#4a4a4a" fill-rule="evenodd"/></svg>