
<svg width="24px" height="24px" viewBox="0 0 24 24" version="1.1" xmlns="http://www.w3.org/2000/svg" xmlns:xlink="http://www.w3.org/1999/xlink">
    <g id="Symbols" stroke="none" stroke-width="1" fill="none" fill-rule="evenodd">
        <g id="footer-dark" transform="translate(-1260.000000, -323.000000)" fill="#4A4A4A">
            <g id="footer">
                <g id="Social" transform="translate(1145.000000, 321.000000)">
                    <path d="M136.147206,2 L117.852794,2 C116.277146,2 115,3.27387284 115,4.84624826 L115,23.1537517 C115,24.7254725 116.277146,26 117.852794,26 L136.147206,26 C137.722854,26 139,24.7254725 139,23.1537517 L139,4.84624826 C139,3.27387284 137.722854,2 136.147206,2 L136.147206,2 Z M132.250307,5.74961132 C132.250307,5.33589723 132.586122,5.00008183 132.999836,5.00008183 L135.249734,5.00008183 C135.664103,5.00008183 135.999918,5.33589723 135.999918,5.74961132 L135.999918,8.00016365 C135.999918,8.41387775 135.664103,8.74969315 135.249734,8.74969315 L132.999836,8.74969315 C132.586122,8.74969315 132.250307,8.41387775 132.250307,8.00016365 L132.250307,5.74961132 L132.250307,5.74961132 Z M127.027821,9.42328778 C129.576876,9.42328778 131.643483,11.4853122 131.643483,14.027821 C131.643483,16.5709844 129.576876,18.6323541 127.027821,18.6323541 C124.479421,18.6323541 122.412814,16.5709844 122.412814,14.027821 C122.412814,11.4853122 124.479421,9.42328778 127.027821,9.42328778 L127.027821,9.42328778 Z M136.750102,22.9999182 C136.750102,23.4136323 136.414287,23.7501023 135.999918,23.7501023 L118.000082,23.7501023 C117.585713,23.7501023 117.249898,23.4136323 117.249898,22.9999182 L117.249898,11.749775 L120.24998,11.749775 C119.859177,12.3120858 119.726945,13.3614271 119.726945,14.027821 C119.726945,18.0438589 123.002618,21.3116766 127.027821,21.3116766 C131.053678,21.3116766 134.329351,18.0438589 134.329351,14.027821 C134.329351,13.3614271 134.234433,12.328451 133.75002,11.749775 L136.750102,11.749775 L136.750102,22.9999182 L136.750102,22.9999182 Z" id="Instagram"></path>
                </g>
            </g>
        </g>
    </g>
</svg>