<svg xmlns="http://www.w3.org/2000/svg" width="139" height="26" fill="#4a4a4a" fill-rule="evenodd" xmlns:v="https://vecta.io/nano"><path d="M136.147 2h-18.294A2.85 2.85 0 0 0 115 4.846v18.308A2.85 2.85 0 0 0 117.853 26h18.294A2.85 2.85 0 0 0 139 23.154V4.846A2.85 2.85 0 0 0 136.147 2h0zm-3.897 3.75A.75.75 0 0 1 133 5h2.25a.75.75 0 0 1 .75.75V8a.75.75 0 0 1-.75.75H133a.75.75 0 0 1-.75-.75V5.75h0zm-5.222 3.674c2.549 0 4.616 2.062 4.616 4.605a4.615 4.615 0 1 1-9.231 0 4.61 4.61 0 0 1 4.615-4.605h0zM136.75 23a.75.75 0 0 1-.75.75h-18a.75.75 0 0 1-.75-.75V11.75h3c-.391.562-.523 1.612-.523 2.278 0 4.016 3.276 7.284 7.301 7.284s7.302-3.268 7.302-7.284c0-.666-.095-1.699-.579-2.278h3V23h0zM79.228 1.444a11.11 11.11 0 0 1-3.651 1.468C74.532 1.735 73.038 1 71.385 1c-3.17 0-5.742 2.713-5.742 6.059a6.34 6.34 0 0 0 .148 1.38c-4.774-.253-9.006-2.662-11.841-6.332-.495.898-.778 1.94-.778 3.05 0 2.101 1.014 3.956 2.556 5.042-.94-.029-1.828-.305-2.604-.755v.074c0 2.937 1.98 5.387 4.61 5.941-.481.142-.99.214-1.514.214a5.43 5.43 0 0 1-1.081-.108c.731 2.406 2.851 4.159 5.366 4.205-1.965 1.626-4.444 2.594-7.134 2.594a11.25 11.25 0 0 1-1.37-.083c2.542 1.716 5.563 2.72 8.806 2.72C71.373 25 77.15 15.769 77.15 7.762c0-.264-.004-.527-.014-.785A11.99 11.99 0 0 0 80 3.841a11.01 11.01 0 0 1-3.298.954c1.186-.749 2.097-1.936 2.526-3.351M9.736 26V14.14h4.423l.662-4.622H9.736V6.567c0-1.338.413-2.25 2.545-2.25L15 4.316V.182C14.53.126 12.916 0 11.038 0c-3.92 0-6.604 2.154-6.604 6.11v3.409H0v4.622h4.434V26h5.302z"/></svg>