<?xml version="1.0" standalone="no"?>
<!DOCTYPE svg PUBLIC "-//W3C//DTD SVG 20010904//EN"
 "http://www.w3.org/TR/2001/REC-SVG-20010904/DTD/svg10.dtd">
<svg version="1.0" xmlns="http://www.w3.org/2000/svg"
 width="512.000000pt" height="512.000000pt" viewBox="0 0 512.000000 512.000000"
 preserveAspectRatio="xMidYMid meet">
<metadata>
Created by potrace 1.11, written by Peter Selinger 2001-2013
</metadata>
<g transform="translate(0.000000,512.000000) scale(0.100000,-0.100000)"
fill="#000000" stroke="none">
<path d="M1801 4843 c-16 -8 -33 -22 -37 -31 -4 -10 -8 -223 -9 -474 -1 -252
-4 -460 -6 -462 -2 -2 -91 48 -198 110 -107 63 -195 114 -196 114 -1 0 -91 52
-200 115 -110 63 -209 115 -222 115 -46 0 -70 -22 -125 -118 -31 -54 -107
-185 -169 -292 -351 -609 -439 -765 -443 -785 -7 -39 28 -79 110 -126 344
-196 751 -434 763 -444 11 -11 9 -15 -13 -26 -14 -8 -65 -37 -113 -65 -48 -28
-149 -85 -223 -127 -74 -43 -142 -82 -150 -87 -8 -5 -94 -54 -190 -110 -213
-123 -209 -120 -220 -159 -9 -31 2 -59 69 -176 59 -103 287 -494 308 -530 13
-22 26 -48 30 -58 3 -9 9 -17 14 -17 5 0 9 -4 9 -10 0 -15 219 -393 241 -415
35 -36 82 -25 204 46 61 36 135 79 165 96 30 17 165 94 299 172 134 77 246
139 250 137 3 -2 6 -217 5 -478 0 -505 0 -514 49 -539 31 -18 1327 -19 1368
-2 55 23 55 24 54 571 0 276 3 502 8 502 5 0 92 -49 195 -108 622 -361 686
-396 718 -396 18 0 42 8 54 19 19 17 30 35 98 155 14 25 64 113 112 195 190
327 270 467 270 476 0 5 5 9 10 9 6 0 10 4 10 8 0 5 38 75 85 156 91 157 100
183 83 222 -10 22 -142 107 -283 183 -16 9 -31 19 -33 24 -2 4 -7 7 -11 7 -7
0 -205 112 -458 260 l-92 54 37 21 c20 12 156 90 302 174 146 85 281 162 300
173 168 96 192 112 205 139 9 16 14 39 11 52 -3 18 -54 113 -116 217 -22 36
-105 179 -128 220 -14 25 -56 99 -95 165 -38 66 -125 217 -193 336 -69 119
-133 224 -144 234 -47 42 -91 21 -720 -348 -47 -27 -105 -61 -130 -75 -25 -14
-54 -31 -65 -38 -11 -8 -22 -14 -25 -14 -4 0 -7 221 -7 491 0 471 -1 491 -20
517 -11 14 -30 29 -44 32 -13 4 -318 7 -676 7 -546 0 -657 -3 -682 -14z"/>
</g>
</svg>
