<svg xmlns="http://www.w3.org/2000/svg" width="682.667" height="682.667" viewBox="0 0 512 512" preserveAspectRatio="xMidYMid meet" xmlns:v="https://vecta.io/nano"><path d="M180.1 27.7c-1.6.8-3.3 2.2-3.7 3.1-.4 1-.8 22.3-.9 47.4l-.6 46.2c-.2.2-9.1-4.8-19.8-11L135.5 102c-.1 0-9.1-5.2-20-11.5-11-6.3-20.9-11.5-22.2-11.5-4.6 0-7 2.2-12.5 11.8L63.9 120l-44.3 78.5c-.7 3.9 2.8 7.9 11 12.6l76.3 44.4c1.1 1.1.9 1.5-1.3 2.6l-11.3 6.5L72 277.3 57 286c-.8.5-9.4 5.4-19 11-21.3 12.3-20.9 12-22 15.9-.9 3.1.2 5.9 6.9 17.6l30.8 53c1.3 2.2 2.6 4.8 3 5.8.3.9.9 1.7 1.4 1.7s.9.4.9 1c0 1.5 21.9 39.3 24.1 41.5 3.5 3.6 8.2 2.5 20.4-4.6l16.5-9.6 29.9-17.2c13.4-7.7 24.6-13.9 25-13.7.3.2.6 21.7.5 47.8 0 50.5 0 51.4 4.9 53.9 3.1 1.8 132.7 1.9 136.8.2 5.5-2.3 5.5-2.4 5.4-57.1 0-27.6.3-50.2.8-50.2s9.2 4.9 19.5 10.8c62.2 36.1 68.6 39.6 71.8 39.6 1.8 0 4.2-.8 5.4-1.9 1.9-1.7 3-3.5 9.8-15.5l11.2-19.5 27-47.6c0-.5.5-.9 1-.9.6 0 1-.4 1-.8 0-.5 3.8-7.5 8.5-15.6 9.1-15.7 10-18.3 8.3-22.2-1-2.2-14.2-10.7-28.3-18.3-1.6-.9-3.1-1.9-3.3-2.4a1.36 1.36 0 0 0-1.1-.7c-.7 0-20.5-11.2-45.8-26l-9.2-5.4 3.7-2.1c2-1.2 15.6-9 30.2-17.4l30-17.3c16.8-9.6 19.2-11.2 20.5-13.9.9-1.6 1.4-3.9 1.1-5.2-.3-1.8-5.4-11.3-11.6-21.7-2.2-3.6-10.5-17.9-12.8-22l-9.5-16.5-19.3-33.6C424.5 95 418.1 84.5 417 83.5c-4.7-4.2-9.1-2.1-72 34.8l-13 7.5c-2.5 1.4-5.4 3.1-6.5 3.8-1.1.8-2.2 1.4-2.5 1.4-.4 0-.7-22.1-.7-49.1 0-47.1-.1-49.1-2-51.7-1.1-1.4-3-2.9-4.4-3.2-1.3-.4-31.8-.7-67.6-.7-54.6 0-65.7.3-68.2 1.4z"/></svg>